<svg version="1.1" xmlns="http://www.w3.org/2000/svg" fill-rule="evenodd" clip-rule="evenodd" height="128" width="128" viewBox="0 0 1024 1024" style="width: 128px; height: 128px;"><path d="M1024 155.733333c0-85.333333-70.4-155.733333-155.733333-155.733333h-712.533334c-85.333333 0-155.733333 70.4-155.733333 155.733333v712.533334c0 85.333333 70.4 155.733333 155.733333 155.733333h712.533334c85.333333 0 155.733333-70.4 155.733333-155.733333v-712.533334z" fill="#4285F4"></path><path d="M810.666667 422.4c-2.133333 6.4-4.266667 14.933333-8.533334 23.466667-27.733333 59.733333-100.266667 174.933333-100.266666 174.933333l-21.333334 36.266667h102.4l-194.133333 258.133333 44.8-174.933333h-78.933333l27.733333-115.2c-23.466667 6.4-49.066667 12.8-81.066667 23.466666 0 0-42.666667 25.6-121.6-46.933333 0 0-53.333333-46.933333-23.466666-59.733333 12.8-4.266667 64-10.666667 104.533333-17.066667 55.466667-6.4 87.466667-10.666667 87.466667-10.666667s-168.533333 2.133333-206.933334-4.266666c-40.533333-6.4-89.6-72.533333-100.266666-132.266667 0 0-17.066667-32 36.266666-17.066667s268.8 59.733333 268.8 59.733334-281.6-87.466667-300.8-108.8c-19.2-21.333333-55.466667-115.2-51.2-172.8 0 0 2.133333-14.933333 17.066667-10.666667 0 0 209.066667 96 352 147.2 140.8 53.333333 264.533333 81.066667 247.466667 147.2z" fill="#FFFFFF"></path></svg>