<?xml version="1.0" encoding="iso-8859-1"?>
<!-- Uploaded to: SVG Repo, www.svgrepo.com, Generator: SVG Repo Mixer Tools -->
<svg version="1.1" id="Layer_1" xmlns="http://www.w3.org/2000/svg" xmlns:xlink="http://www.w3.org/1999/xlink" 
	 viewBox="0 0 512 512" xml:space="preserve">
<polygon style="fill:#88ACB5;" points="471.149,482.043 503.83,482.043 503.83,95.319 449.362,62.638 "/>
<polygon style="fill:#A7CBCF;" points="8.17,95.319 8.17,482.043 471.149,482.043 471.149,62.638 "/>
<polygon style="fill:#367596;" points="471.149,29.957 449.362,62.638 471.149,95.319 503.83,95.319 503.83,29.957 "/>
<rect x="8.17" y="29.957" style="fill:#5195AF;" width="462.979" height="65.362"/>
<polygon style="fill:#D0FBFD;" points="438.468,128 416.681,278.415 438.468,449.362 471.149,449.362 471.149,128 "/>
<rect x="40.851" y="128" style="fill:#FFFFFF;" width="397.617" height="321.362"/>
<g>
	<path style="fill:#88ACB5;" d="M141.617,236.936c-13.515,0-24.511-10.996-24.511-24.511v-21.787
		c0-13.515,10.996-24.511,24.511-24.511s24.511,10.996,24.511,24.511v21.787C166.128,225.94,155.132,236.936,141.617,236.936z
		 M141.617,182.468c-4.506,0-8.17,3.665-8.17,8.17v21.787c0,4.506,3.665,8.17,8.17,8.17s8.17-3.665,8.17-8.17v-21.787
		C149.787,186.133,146.123,182.468,141.617,182.468z"/>
	<path style="fill:#88ACB5;" d="M190.638,236.936c-4.513,0-8.17-3.657-8.17-8.17v-54.468c0-4.513,3.657-8.17,8.17-8.17
		s8.17,3.657,8.17,8.17v54.468C198.809,233.279,195.152,236.936,190.638,236.936z"/>
	<path style="fill:#88ACB5;" d="M239.66,236.936c-13.515,0-24.511-10.996-24.511-24.511v-21.787
		c0-13.515,10.996-24.511,24.511-24.511c13.515,0,24.511,10.996,24.511,24.511v21.787C264.17,225.94,253.174,236.936,239.66,236.936
		z M239.66,182.468c-4.506,0-8.17,3.665-8.17,8.17v21.787c0,4.506,3.665,8.17,8.17,8.17s8.17-3.665,8.17-8.17v-21.787
		C247.83,186.133,244.165,182.468,239.66,182.468z"/>
	<path style="fill:#88ACB5;" d="M288.681,236.936c-4.513,0-8.17-3.657-8.17-8.17v-54.468c0-4.513,3.657-8.17,8.17-8.17
		c4.513,0,8.17,3.657,8.17,8.17v54.468C296.851,233.279,293.194,236.936,288.681,236.936z"/>
	<path style="fill:#88ACB5;" d="M321.362,236.936c-4.513,0-8.17-3.657-8.17-8.17v-54.468c0-4.513,3.657-8.17,8.17-8.17
		c4.513,0,8.17,3.657,8.17,8.17v54.468C329.532,233.279,325.875,236.936,321.362,236.936z"/>
	<path style="fill:#88ACB5;" d="M370.383,236.936c-13.515,0-24.511-10.996-24.511-24.511v-21.787
		c0-13.515,10.996-24.511,24.511-24.511s24.511,10.996,24.511,24.511v21.787C394.894,225.94,383.898,236.936,370.383,236.936z
		 M370.383,182.468c-4.506,0-8.17,3.665-8.17,8.17v21.787c0,4.506,3.665,8.17,8.17,8.17s8.17-3.665,8.17-8.17v-21.787
		C378.553,186.133,374.889,182.468,370.383,182.468z"/>
	<path style="fill:#88ACB5;" d="M174.298,411.234c-13.515,0-24.511-10.996-24.511-24.511v-21.787
		c0-13.515,10.996-24.511,24.511-24.511s24.511,10.996,24.511,24.511v21.787C198.809,400.238,187.813,411.234,174.298,411.234z
		 M174.298,356.766c-4.506,0-8.17,3.665-8.17,8.17v21.787c0,4.506,3.665,8.17,8.17,8.17s8.17-3.665,8.17-8.17v-21.787
		C182.468,360.431,178.803,356.766,174.298,356.766z"/>
	<path style="fill:#88ACB5;" d="M125.277,411.234c-4.513,0-8.17-3.657-8.17-8.17v-54.468c0-4.513,3.657-8.17,8.17-8.17
		s8.17,3.657,8.17,8.17v54.468C133.447,407.577,129.79,411.234,125.277,411.234z"/>
	<path style="fill:#88ACB5;" d="M239.66,411.234c-13.515,0-24.511-10.996-24.511-24.511v-21.787
		c0-13.515,10.996-24.511,24.511-24.511c13.515,0,24.511,10.996,24.511,24.511v21.787
		C264.17,400.238,253.174,411.234,239.66,411.234z M239.66,356.766c-4.506,0-8.17,3.665-8.17,8.17v21.787
		c0,4.506,3.665,8.17,8.17,8.17s8.17-3.665,8.17-8.17v-21.787C247.83,360.431,244.165,356.766,239.66,356.766z"/>
	<path style="fill:#88ACB5;" d="M288.681,411.234c-4.513,0-8.17-3.657-8.17-8.17v-54.468c0-4.513,3.657-8.17,8.17-8.17
		c4.513,0,8.17,3.657,8.17,8.17v54.468C296.851,407.577,293.194,411.234,288.681,411.234z"/>
	<path style="fill:#88ACB5;" d="M321.362,411.234c-4.513,0-8.17-3.657-8.17-8.17v-54.468c0-4.513,3.657-8.17,8.17-8.17
		c4.513,0,8.17,3.657,8.17,8.17v54.468C329.532,407.577,325.875,411.234,321.362,411.234z"/>
	<path style="fill:#88ACB5;" d="M370.383,411.234c-13.515,0-24.511-10.996-24.511-24.511v-21.787
		c0-13.515,10.996-24.511,24.511-24.511s24.511,10.996,24.511,24.511v21.787C394.894,400.238,383.898,411.234,370.383,411.234z
		 M370.383,356.766c-4.506,0-8.17,3.665-8.17,8.17v21.787c0,4.506,3.665,8.17,8.17,8.17s8.17-3.665,8.17-8.17v-21.787
		C378.553,360.431,374.889,356.766,370.383,356.766z"/>
	<path style="fill:#88ACB5;" d="M370.383,324.085c-13.515,0-24.511-10.996-24.511-24.511v-21.787
		c0-13.515,10.996-24.511,24.511-24.511s24.511,10.996,24.511,24.511v21.787C394.894,313.089,383.898,324.085,370.383,324.085z
		 M370.383,269.617c-4.506,0-8.17,3.665-8.17,8.17v21.787c0,4.506,3.665,8.17,8.17,8.17s8.17-3.665,8.17-8.17v-21.787
		C378.553,273.282,374.889,269.617,370.383,269.617z"/>
	<path style="fill:#88ACB5;" d="M321.362,324.085c-4.513,0-8.17-3.657-8.17-8.17v-54.468c0-4.513,3.657-8.17,8.17-8.17
		c4.513,0,8.17,3.657,8.17,8.17v54.468C329.532,320.428,325.875,324.085,321.362,324.085z"/>
	<path style="fill:#88ACB5;" d="M272.34,324.085c-13.515,0-24.511-10.996-24.511-24.511v-21.787
		c0-13.515,10.996-24.511,24.511-24.511c13.515,0,24.511,10.996,24.511,24.511v21.787
		C296.851,313.089,285.855,324.085,272.34,324.085z M272.34,269.617c-4.506,0-8.17,3.665-8.17,8.17v21.787
		c0,4.506,3.665,8.17,8.17,8.17c4.506,0,8.17-3.665,8.17-8.17v-21.787C280.511,273.282,276.846,269.617,272.34,269.617z"/>
	<path style="fill:#88ACB5;" d="M223.319,324.085c-4.513,0-8.17-3.657-8.17-8.17v-54.468c0-4.513,3.657-8.17,8.17-8.17
		s8.17,3.657,8.17,8.17v54.468C231.489,320.428,227.832,324.085,223.319,324.085z"/>
	<path style="fill:#88ACB5;" d="M190.638,324.085c-4.513,0-8.17-3.657-8.17-8.17v-54.468c0-4.513,3.657-8.17,8.17-8.17
		s8.17,3.657,8.17,8.17v54.468C198.809,320.428,195.152,324.085,190.638,324.085z"/>
	<path style="fill:#88ACB5;" d="M141.617,324.085c-13.515,0-24.511-10.996-24.511-24.511v-21.787
		c0-13.515,10.996-24.511,24.511-24.511s24.511,10.996,24.511,24.511v21.787C166.128,313.089,155.132,324.085,141.617,324.085z
		 M141.617,269.617c-4.506,0-8.17,3.665-8.17,8.17v21.787c0,4.506,3.665,8.17,8.17,8.17s8.17-3.665,8.17-8.17v-21.787
		C149.787,273.282,146.123,269.617,141.617,269.617z"/>
</g>
<circle cx="430.298" cy="62.638" r="8.17"/>
<circle cx="397.617" cy="62.638" r="8.17"/>
<circle cx="462.979" cy="62.638" r="8.17"/>
<path d="M503.83,21.787H8.17c-4.513,0-8.17,3.657-8.17,8.17v452.085c0,4.513,3.657,8.17,8.17,8.17h495.66
	c4.513,0,8.17-3.657,8.17-8.17V29.957C512,25.444,508.343,21.787,503.83,21.787z M495.66,38.128v49.021H16.34V38.128H495.66z
	 M16.34,473.872V103.489H495.66v370.383H16.34z"/>
<path d="M471.149,119.83H40.851c-4.513,0-8.17,3.657-8.17,8.17v321.362c0,4.513,3.657,8.17,8.17,8.17h430.298
	c4.513,0,8.17-3.657,8.17-8.17v-32.681c0-4.513-3.657-8.17-8.17-8.17c-4.513,0-8.17,3.657-8.17,8.17v24.511H49.021V136.17h413.957
	V384c0,4.513,3.657,8.17,8.17,8.17c4.513,0,8.17-3.657,8.17-8.17V128C479.319,123.487,475.662,119.83,471.149,119.83z"/>
</svg>