<?xml version="1.0" encoding="iso-8859-1"?>
<!-- Uploaded to: SVG Repo, www.svgrepo.com, Generator: SVG Repo Mixer Tools -->
<svg height="800px" width="800px" version="1.1" id="Layer_1" xmlns="http://www.w3.org/2000/svg" xmlns:xlink="http://www.w3.org/1999/xlink" 
	 viewBox="0 0 503.467 503.467" xml:space="preserve">
<g transform="translate(1 1)">
	<path style="fill:#AAB1BA;" d="M498.2,28.867v221.867h-59.733c-17.067,0-17.067,17.067-17.067,17.067
		c0,7.68,5.973,11.947,8.533,13.653C440.173,287.427,447,298.52,447,310.467c0,18.773-17.067,34.133-42.667,34.133
		c-25.6,0-42.667-15.36-42.667-34.133c0-12.8,6.827-23.893,17.067-29.867c2.56-1.707,8.533-5.12,8.533-12.8
		c0,0,0-17.067-17.067-17.067H250.733V131.267c0-17.067,17.067-17.067,17.067-17.067c7.68,0,11.947,5.973,12.8,8.533
		c5.973,10.24,17.067,17.067,29.867,17.067c18.773,0,34.133-17.067,34.133-42.667s-15.36-42.667-34.133-42.667
		c-12.8,0-23.893,6.827-29.013,17.067c-1.707,2.56-5.973,8.533-13.653,8.533c0,0-17.067,0-17.067-17.067V3.267H472.6
		C487.107,3.267,498.2,14.36,498.2,28.867"/>
	<path style="fill:#7EE1E6;" d="M310.467,54.467c18.773,0,34.133,17.067,34.133,42.667S329.24,139.8,310.467,139.8
		c-12.8,0-23.893-6.827-29.867-17.067c-1.707-2.56-5.12-8.533-12.8-8.533c0,0-17.067,0-17.067,17.067v119.467H131.267
		c-17.067,0-17.067-17.067-17.067-17.067c0-7.68,5.973-11.947,8.533-12.8C132.973,214.893,139.8,203.8,139.8,191
		c0-18.773-17.067-34.133-42.667-34.133S54.467,172.227,54.467,191c0,12.8,6.827,23.893,17.067,29.013
		c2.56,1.707,8.533,5.973,8.533,13.653c0,0,0,17.067-17.067,17.067H3.267V28.867c0-14.507,11.093-25.6,25.6-25.6h221.867V63
		c0,17.067,17.067,17.067,17.067,17.067c7.68,0,11.947-5.973,13.653-8.533C286.573,61.293,297.667,54.467,310.467,54.467"/>
	<path style="fill:#ECF4F7;" d="M250.733,438.467V498.2H28.867c-14.507,0-25.6-11.093-25.6-25.6V250.733H63
		c17.067,0,17.067-17.067,17.067-17.067c0-7.68-5.973-11.947-8.533-13.653C61.293,214.04,54.467,202.947,54.467,191
		c0-18.773,17.067-34.133,42.667-34.133S139.8,172.227,139.8,191c0,12.8-6.827,23.893-17.067,29.867
		c-2.56,1.707-8.533,5.12-8.533,12.8c0,0,0,17.067,17.067,17.067h119.467V370.2c0,17.067-17.067,17.067-17.067,17.067
		c-7.68,0-11.947-5.973-12.8-8.533c-5.973-10.24-17.067-17.067-29.867-17.067c-18.773,0-34.133,17.067-34.133,42.667
		c0,25.6,15.36,42.667,34.133,42.667c12.8,0,23.893-6.827,29.013-17.067c1.707-2.56,5.973-8.533,13.653-8.533
		C233.667,421.4,250.733,421.4,250.733,438.467"/>
	<path style="fill:#FFE079;" d="M498.2,250.733V472.6c0,14.507-11.093,25.6-25.6,25.6H250.733v-59.733
		c0-17.067-17.067-17.067-17.067-17.067c-7.68,0-11.947,5.973-13.653,8.533C214.04,440.173,202.947,447,191,447
		c-18.773,0-34.133-17.067-34.133-42.667c0-25.6,15.36-42.667,34.133-42.667c12.8,0,23.893,6.827,29.867,17.067
		c1.707,2.56,5.12,8.533,12.8,8.533c0,0,17.067,0,17.067-17.067V250.733H370.2c17.067,0,17.067,17.067,17.067,17.067
		c0,7.68-5.973,11.947-8.533,12.8c-10.24,5.973-17.067,17.067-17.067,29.867c0,18.773,17.067,34.133,42.667,34.133
		c25.6,0,42.667-15.36,42.667-34.133c0-12.8-6.827-23.893-17.067-29.013c-2.56-1.707-8.533-5.973-8.533-13.653
		c0,0,0-17.067,17.067-17.067H498.2z"/>
</g>
<path style="fill:#51565F;" d="M473.6,503.467H285.867c-2.56,0-4.267-1.707-4.267-4.267c0-2.56,1.707-4.267,4.267-4.267H473.6
	c11.947,0,21.333-9.387,21.333-21.333V256h-55.467c-11.947,0-12.8,11.093-12.8,12.8c0,3.413,2.56,6.827,6.827,9.387
	c11.947,6.827,18.773,19.627,18.773,33.28c0,22.187-19.627,38.4-46.933,38.4s-46.933-16.213-46.933-38.4
	c0-13.653,7.68-26.453,19.627-33.28c2.56-1.707,5.973-4.267,5.973-9.387c0-1.707-0.853-12.8-12.8-12.8H256v115.2
	c0,17.067-13.653,21.333-21.333,21.333c-6.827,0-12.8-3.413-17.067-10.24c-5.12-9.387-15.36-15.36-25.6-15.36
	c-17.067,0-29.867,16.213-29.867,38.4c0,22.187,12.8,38.4,29.867,38.4c10.24,0,20.48-5.12,25.6-14.507
	c4.267-6.827,10.24-11.093,17.067-11.093c7.68,0,21.333,4.267,21.333,21.333V499.2c0,2.56-1.707,4.267-4.267,4.267H29.867
	C13.653,503.467,0,489.813,0,473.6V285.867c0-2.56,1.707-4.267,4.267-4.267s4.267,1.707,4.267,4.267V473.6
	c0,11.947,9.387,21.333,21.333,21.333h217.6v-55.467c0-11.947-11.093-12.8-12.8-12.8c-3.413,0-6.827,2.56-9.387,6.827
	c-6.827,11.947-19.627,18.773-33.28,18.773c-22.187,0-38.4-19.627-38.4-46.933c0-27.307,16.213-46.933,38.4-46.933
	c13.653,0,26.453,7.68,33.28,19.627c1.707,2.56,4.267,5.973,9.387,5.973c1.707,0,12.8-0.853,12.8-12.8V256h-115.2
	c-17.067,0-21.333-13.653-21.333-21.333c0-6.827,3.413-12.8,10.24-17.067c9.387-5.12,15.36-15.36,15.36-25.6
	c0-17.067-16.213-29.867-38.4-29.867s-38.4,12.8-38.4,29.867c0,10.24,5.12,20.48,14.507,25.6
	c6.827,4.267,11.093,10.24,11.093,17.067C85.333,242.347,81.067,256,64,256H4.267C1.707,256,0,254.293,0,251.733V29.867
	C0,13.653,13.653,0,29.867,0H217.6c2.56,0,4.267,1.707,4.267,4.267s-1.707,4.267-4.267,4.267H29.867
	c-11.947,0-21.333,9.387-21.333,21.333v217.6H64c11.947,0,12.8-11.093,12.8-12.8c0-3.413-2.56-6.827-6.827-9.387
	C58.027,218.453,51.2,205.653,51.2,192c0-22.187,19.627-38.4,46.933-38.4s46.933,16.213,46.933,38.4
	c0,13.653-7.68,26.453-19.627,33.28c-2.56,1.707-5.973,4.267-5.973,9.387c0,1.707,0.853,12.8,12.8,12.8h115.2v-115.2
	c0-17.067,13.653-21.333,21.333-21.333c6.827,0,12.8,3.413,17.067,10.24c5.12,9.387,15.36,15.36,25.6,15.36
	c17.067,0,29.867-16.213,29.867-38.4s-12.8-38.4-29.867-38.4c-10.24,0-20.48,5.12-25.6,14.507
	c-4.267,6.827-10.24,11.093-17.067,11.093c-7.68,0-21.333-4.267-21.333-21.333V4.267c0-2.56,1.707-4.267,4.267-4.267H473.6
	c16.213,0,29.867,13.653,29.867,29.867V217.6c0,2.56-1.707,4.267-4.267,4.267c-2.56,0-4.267-1.707-4.267-4.267V29.867
	c0-11.947-9.387-21.333-21.333-21.333H256V64c0,11.947,11.093,12.8,12.8,12.8c3.413,0,6.827-2.56,9.387-6.827
	c6.827-11.947,19.627-18.773,33.28-18.773c22.187,0,38.4,19.627,38.4,46.933s-16.213,46.933-38.4,46.933
	c-13.653,0-26.453-7.68-33.28-19.627c-1.707-2.56-4.267-5.973-9.387-5.973c-1.707,0-12.8,0.853-12.8,12.8v115.2h115.2
	c17.067,0,21.333,13.653,21.333,21.333c0,6.827-3.413,12.8-10.24,17.067c-9.387,5.12-15.36,15.36-15.36,25.6
	c0,17.067,16.213,29.867,38.4,29.867c22.187,0,38.4-12.8,38.4-29.867c0-10.24-5.12-20.48-14.507-25.6
	c-6.827-4.267-11.093-10.24-11.093-17.067c0-7.68,4.267-21.333,21.333-21.333H499.2c2.56,0,4.267,1.707,4.267,4.267V473.6
	C503.467,489.813,489.813,503.467,473.6,503.467z"/>
</svg>